<?xml version="1.0" standalone="no"?>
<!DOCTYPE svg PUBLIC "-//W3C//DTD SVG 20010904//EN"
 "http://www.w3.org/TR/2001/REC-SVG-20010904/DTD/svg10.dtd">
<svg version="1.0" xmlns="http://www.w3.org/2000/svg"
 width="384.000000pt" height="384.000000pt" viewBox="0 0 384.000000 384.000000"
 preserveAspectRatio="xMidYMid meet">

<g transform="translate(0.000000,384.000000) scale(0.100000,-0.100000)"
fill="#000000" stroke="none">
<path d="M1658 3802 c-47 -48 -58 -71 -58 -125 0 -62 32 -106 103 -140 l58
-28 -3 -152 -3 -152 -445 -6 c-488 -6 -488 -6 -594 -70 -68 -42 -151 -130
-181 -193 -49 -104 -55 -151 -55 -428 0 -238 -1 -259 -18 -264 -47 -14 -89
-43 -114 -79 l-27 -40 -1 -363 c0 -390 0 -391 53 -440 14 -13 42 -30 64 -37
l38 -13 5 -339 c6 -380 6 -381 80 -428 l40 -25 1320 0 1320 0 39 24 c21 14 48
41 60 61 20 35 21 47 21 371 0 310 1 335 18 340 47 14 89 43 114 79 l27 40 0
365 0 365 -27 40 c-25 36 -67 65 -114 79 -17 5 -18 26 -18 264 0 281 -6 328
-58 432 -30 61 -130 167 -183 194 -118 61 -107 60 -589 66 l-445 5 -3 152 -3
152 58 28 c71 34 103 78 103 140 0 54 -17 88 -65 131 l-37 32 -221 -1 -222 -1
-37 -36z m1299 -943 c19 -12 45 -39 59 -60 l24 -39 -2 -977 -3 -978 -1115 0
-1115 0 -3 981 -2 981 23 34 c12 18 38 44 56 56 l34 23 1005 0 1005 0 34 -21z"/>
<path d="M1359 2055 c-105 -69 -102 -210 6 -274 132 -78 292 82 214 214 -48
81 -147 108 -220 60z"/>
<path d="M2319 2055 c-105 -69 -102 -210 6 -274 132 -78 292 82 214 214 -48
81 -147 108 -220 60z"/>
<path d="M1357 1414 c-51 -33 -77 -79 -77 -134 0 -56 26 -101 79 -135 l41 -25
520 0 520 0 41 25 c53 34 79 79 79 135 0 56 -26 101 -79 135 l-41 25 -522 -1
-523 0 -38 -25z"/>
</g>
</svg>
