<?xml version="1.0" standalone="no"?>
<!DOCTYPE svg PUBLIC "-//W3C//DTD SVG 20010904//EN"
 "http://www.w3.org/TR/2001/REC-SVG-20010904/DTD/svg10.dtd">
<svg version="1.0" xmlns="http://www.w3.org/2000/svg"
 width="400.000000pt" height="400.000000pt" viewBox="0 0 400.000000 400.000000"
 preserveAspectRatio="xMidYMid meet">

<g transform="translate(0.000000,400.000000) scale(0.100000,-0.100000)"
fill="#000000" stroke="none">
<path d="M639 3737 c-79 -53 -102 -142 -55 -215 13 -20 355 -368 760 -772 405
-404 736 -742 736 -750 0 -8 -329 -344 -731 -745 -402 -402 -744 -748 -760
-769 -54 -73 -33 -167 50 -223 41 -28 109 -31 149 -6 43 26 1742 1726 1742
1743 0 17 -1699 1717 -1742 1743 -40 25 -108 22 -149 -6z"/>
<path d="M1679 3737 c-79 -53 -102 -142 -55 -215 13 -20 355 -368 760 -772
405 -404 736 -742 736 -750 0 -8 -329 -344 -731 -745 -402 -402 -744 -748
-760 -769 -54 -73 -33 -167 50 -223 41 -28 109 -31 149 -6 43 26 1742 1726
1742 1743 0 17 -1699 1717 -1742 1743 -40 25 -108 22 -149 -6z"/>
</g>
</svg>
