<?xml version="1.0" standalone="no"?>
<!DOCTYPE svg PUBLIC "-//W3C//DTD SVG 20010904//EN"
 "http://www.w3.org/TR/2001/REC-SVG-20010904/DTD/svg10.dtd">
<svg version="1.0" xmlns="http://www.w3.org/2000/svg"
 width="400.000000pt" height="400.000000pt" viewBox="0 0 400.000000 400.000000"
 preserveAspectRatio="xMidYMid meet">

<g transform="translate(0.000000,400.000000) scale(0.100000,-0.100000)"
fill="#000000" stroke="none">
<path d="M1535 3485 c-133 -18 -207 -41 -343 -107 -192 -92 -338 -211 -455
-371 -45 -62 -64 -93 -118 -197 -69 -131 -120 -356 -119 -529 1 -164 45 -352
120 -506 206 -427 620 -688 1090 -688 273 0 486 72 738 250 23 16 26 13 440
-399 229 -229 427 -421 439 -427 93 -47 209 69 162 162 -6 12 -198 209 -426
438 -293 294 -413 421 -408 430 5 8 21 30 37 50 15 20 28 40 28 45 0 4 6 15
14 23 22 24 82 149 111 229 90 250 92 545 5 797 -95 275 -302 519 -565 666
-222 124 -484 171 -750 134z m437 -274 c301 -90 509 -285 642 -603 27 -64 49
-209 49 -318 1 -317 -154 -610 -415 -787 -164 -112 -332 -164 -533 -166 -114
0 -256 21 -323 50 -167 70 -253 125 -356 227 -122 120 -201 253 -252 426 -25
86 -28 110 -28 250 0 136 4 166 26 246 80 283 263 501 521 623 142 68 274 92
454 85 95 -4 144 -11 215 -33z"/>
</g>
</svg>
