<svg xmlns="http://www.w3.org/2000/svg" width="44.000000pt" height="46.000000pt" viewBox="0 0 44.000000 46.000000"
preserveAspectRatio="xMidYMid meet">
<g transform="translate(0.000000,46.000000) scale(0.100000,-0.100000)"
    fill="currentColor" stroke="none">
    <path d="M210 332 c-102 -26 -187 -47 -189 -48 -1 -2 11 -21 29 -43 22 -27 34 -54 37 -86 6 -45 6 -45 38 -39 27 5 41 -1 82 -29 l49 -36 86 165 c63 120 81 164 69 163 -9 -1 -99 -22 -201 -47z m129 -18 c-25 -27 -211 -164 -223 -164 -3 0 -6 15 -6 33 0 31 3 34 123 94 67 34 124 62 126 62 3 1 -6 -11 -20 -25z"/>
</g>
</svg>
